Genre:Drama | Musical | Romance
Language:English
IMDb:http://akas.imdb.com/title/tt1126591/
Source:.BluRay.x264-Felony
Subtitles:Romana


Format : MPEG-4
Format profile : Base Media
Codec ID : isom
File size : 1.87 GiB
Duration : 1h 58mn
Overall bit rate : 2 251 Kbps


Video
Format settings, CABAC : Yes
Format settings, ReFrames : 3 frames
Format settings, GOP : M=1, N=13
Codec ID : avc1
Codec ID/Info : Advanced Video Coding
Duration : 1h 58mn
Bit rate mode : Variable
Bit rate : 1 765 Kbps
Maximum bit rate : 9 293 Kbps
Width : 1 280 pixels
Height : 544 pixels
Display aspect ratio : 2.35:1
Frame rate mode : Constant
Frame rate : 23.976 fps
Color space : YUV
Chroma subsampling : 4:2:0
Bit depth : 8 bits
Scan type : Progressive
Bits/(Pixel*Frame) : 0.106
Stream size : 1.50 GiB (80%)
Writing library : x264

Audio
ID : 2
Format : AAC
Format/Info : Advanced Audio Codec
Format version : Version 4
Format profile : LC
Format settings, SBR : No
Codec ID : 40
Duration : 1h 58mn
Bit rate mode : Variable
Bit rate : 443 Kbps
Maximum bit rate : 526 Kbps
Channel(s) : 6 channels
Channel positions : Front: L C R, Side: L R, LFE
Sampling rate : 48.0 KHz
Stream size : 377 MiB (20%)


Plot:
A small-town girl ventures to Los Angeles and finds her place in a neo-burlesque club run by a former dancer





================================== 
http://thepiratebay.org/user/hiest
==================================





Screenshots:
 
http://www.rapidhdd.com/images/53205vlcsnap-00003.png
 
http://www.rapidhdd.com/images/997083vlcsnap-00005.png
 
http://rapidhdd.com/images/345611vlcsnap-00001.png
 
http://www.rapidhdd.com/images/9651vlcsnap-00004.png